<?xml version="1.0" encoding="utf-8"?>
<!-- Generator: Adobe Illustrator 16.0.0, SVG Export Plug-In . SVG Version: 6.00 Build 0)  -->
<!DOCTYPE svg PUBLIC "-//W3C//DTD SVG 1.1//EN" "http://www.w3.org/Graphics/SVG/1.1/DTD/svg11.dtd">
<svg version="1.1" id="Layer_1" xmlns="http://www.w3.org/2000/svg" xmlns:xlink="http://www.w3.org/1999/xlink" x="0px" y="0px"
	 width="2095.9209px" height="2757.3105px" viewBox="0 0 2095.9209 2757.3105" enable-background="new 0 0 2095.9209 2757.3105"
	 xml:space="preserve">
<path fill="#0066CC" d="M0,667.3135l0.6162,1428.4932c0,131.5898,2.665,136.5488,95.7607,229.6455l397.8984,397.8975
	c57.2896,57.29,177.2031,46.5107,177.2031-66.3428l0.2529-934.4814c-1.7778-84.5068,80.8003-144.9297,171.416-73.9248
	l-171.375-171.375l0.1338-809.9976c-0.001-185.3936-150.3384-335.6387-335.7314-335.6377l0,0
	c-92.8525-0.001-176.9229,37.7217-237.6948,98.6509C37.9126,490.9644,0.4561,574.7705,0.4561,667.3096L0,667.3135z"/>
<linearGradient id="SVGID_1_" gradientUnits="userSpaceOnUse" x1="458.7646" y1="1968.0459" x2="2032.4426" y2="394.3679">
	<stop  offset="0.3432" style="stop-color:#0098FF"/>
	<stop  offset="0.5431" style="stop-color:#1EA7FF"/>
	<stop  offset="0.8437" style="stop-color:#46BAFF"/>
	<stop  offset="1" style="stop-color:#55C2FF"/>
</linearGradient>
<path fill="url(#SVGID_1_)" d="M2026.7529,2294.7578c1.0479-1.373,2.0908-2.7471,3.1182-4.1357
	c0.9863-1.3301,1.9531-2.668,2.9189-4.0098c0.4688-0.6572,0.9424-1.3096,1.4082-1.9697c1.3711-1.9375,2.7178-3.8867,4.0439-5.8467
	c0.0371-0.0527,0.0732,0.2109,0.1094,0.1543c38.1484-56.4346,57.2969-122.0439,57.3711-187.0439h0.1982l-0.6162-1430.1523
	c0-131.5898-2.666-136.707-95.7607-229.8032L1601.6455,33.9736c-57.2891-57.29-177.2031-46.5498-177.2031,66.3032l-0.2529,935.8057
	c1.7451,82.9517-77.7939,142.6753-166.4277,77.6831L573.2847,429.2842c-131.0942-131.0928-343.6963-131.0371-474.7891,0.0552
	C32.8379,494.9971,0.0054,581.1436,0.1182,667.1968c0.1104,85.7661,33.0015,171.3779,98.4365,236.8125l744.5928,744.5913
	l665.3193,665.3184c61.5088,69.3555,151.2861,113.0791,251.2793,113.0791c92.8525,0,176.9229-37.7227,237.6943-98.6523
	c9.957-9.9814,19.2734-20.5986,27.917-31.7637C2025.8281,2295.9756,2026.2871,2295.3652,2026.7529,2294.7578z"/>
</svg>
